<svg width="258" height="258" viewBox="0 0 258 258" fill="none" xmlns="http://www.w3.org/2000/svg">
<path d="M110.188 241.875C120.577 241.875 129 233.452 129 223.062C129 212.673 120.577 204.25 110.188 204.25C99.7976 204.25 91.375 212.673 91.375 223.062C91.375 233.452 99.7976 241.875 110.188 241.875Z" fill="white"/>
<path d="M201.563 241.875C211.952 241.875 220.375 233.452 220.375 223.062C220.375 212.673 211.952 204.25 201.563 204.25C191.173 204.25 182.75 212.673 182.75 223.062C182.75 233.452 191.173 241.875 201.563 241.875Z" fill="white"/>
<path d="M134.375 139.75H220.375M26.875 32.25L75.25 64.5L102.125 182.75H209.625L236.5 91.375H134.375L26.875 32.25Z" stroke="white" stroke-width="19" stroke-linecap="round" stroke-linejoin="round"/>
</svg>
