<svg width="266" height="266" viewBox="0 0 266 266" fill="none" xmlns="http://www.w3.org/2000/svg">
<path d="M144.083 177.334H77.5835C74.644 177.334 71.8249 178.502 69.7464 180.58C67.6679 182.659 66.5002 185.478 66.5002 188.417C66.5002 191.357 67.6679 194.176 69.7464 196.254C71.8249 198.333 74.644 199.501 77.5835 199.501H144.083C147.023 199.501 149.842 198.333 151.921 196.254C153.999 194.176 155.167 191.357 155.167 188.417C155.167 185.478 153.999 182.659 151.921 180.58C149.842 178.502 147.023 177.334 144.083 177.334ZM99.7502 110.834H121.917C124.856 110.834 127.675 109.666 129.754 107.588C131.832 105.509 133 102.69 133 99.7507C133 96.8112 131.832 93.9921 129.754 91.9136C127.675 89.8351 124.856 88.6673 121.917 88.6673H99.7502C96.8107 88.6673 93.9916 89.8351 91.9131 91.9136C89.8345 93.9921 88.6668 96.8112 88.6668 99.7507C88.6668 102.69 89.8345 105.509 91.9131 107.588C93.9916 109.666 96.8107 110.834 99.7502 110.834V110.834ZM232.75 133.001H199.5V33.2507C199.508 31.2977 198.999 29.3773 198.026 27.684C197.053 25.9907 195.65 24.5847 193.958 23.6082C192.274 22.6354 190.362 22.1233 188.417 22.1233C186.471 22.1233 184.56 22.6354 182.875 23.6082L149.625 42.6715L116.375 23.6082C114.69 22.6354 112.779 22.1233 110.833 22.1233C108.888 22.1233 106.977 22.6354 105.292 23.6082L72.0418 42.6715L38.7918 23.6082C37.107 22.6354 35.1957 22.1233 33.2502 22.1233C31.3046 22.1233 29.3934 22.6354 27.7085 23.6082C26.0171 24.5847 24.6138 25.9907 23.6407 27.684C22.6675 29.3773 22.1591 31.2977 22.1668 33.2507V210.584C22.1668 219.402 25.67 227.86 31.9055 234.095C38.1411 240.331 46.5984 243.834 55.4168 243.834H210.583C219.402 243.834 227.859 240.331 234.095 234.095C240.33 227.86 243.833 219.402 243.833 210.584V144.084C243.833 141.145 242.666 138.325 240.587 136.247C238.509 134.168 235.69 133.001 232.75 133.001ZM55.4168 221.667C52.4774 221.667 49.6583 220.5 47.5797 218.421C45.5012 216.343 44.3335 213.524 44.3335 210.584V52.4248L66.5002 65.0598C68.2107 65.9533 70.112 66.4199 72.0418 66.4199C73.9717 66.4199 75.8729 65.9533 77.5835 65.0598L110.833 45.9965L144.083 65.0598C145.794 65.9533 147.695 66.4199 149.625 66.4199C151.555 66.4199 153.456 65.9533 155.167 65.0598L177.333 52.4248V210.584C177.363 214.365 178.038 218.113 179.328 221.667H55.4168ZM221.667 210.584C221.667 213.524 220.499 216.343 218.421 218.421C216.342 220.5 213.523 221.667 210.583 221.667C207.644 221.667 204.825 220.5 202.746 218.421C200.668 216.343 199.5 213.524 199.5 210.584V155.167H221.667V210.584ZM144.083 133.001H77.5835C74.644 133.001 71.8249 134.168 69.7464 136.247C67.6679 138.325 66.5002 141.145 66.5002 144.084C66.5002 147.024 67.6679 149.843 69.7464 151.921C71.8249 154 74.644 155.167 77.5835 155.167H144.083C147.023 155.167 149.842 154 151.921 151.921C153.999 149.843 155.167 147.024 155.167 144.084C155.167 141.145 153.999 138.325 151.921 136.247C149.842 134.168 147.023 133.001 144.083 133.001Z" fill="white"/>
</svg>
